<?xml version="1.0" standalone="no"?>
<!DOCTYPE svg PUBLIC "-//W3C//DTD SVG 20010904//EN"
 "http://www.w3.org/TR/2001/REC-SVG-20010904/DTD/svg10.dtd">
<svg version="1.0" xmlns="http://www.w3.org/2000/svg"
 width="447.000000pt" height="447.000000pt" viewBox="0 0 447.000000 447.000000"
 preserveAspectRatio="xMidYMid meet">

<g transform="translate(0.000000,447.000000) scale(0.100000,-0.100000)"
fill="#000000" stroke="none">
<path d="M0 2235 l0 -2235 765 0 765 0 -26 51 c-19 38 -24 62 -21 88 3 20 9
59 13 86 8 57 11 61 119 138 44 31 95 70 114 87 18 16 37 30 40 30 4 0 14 12
23 28 17 26 17 22 12 -106 -4 -107 -2 -133 8 -130 20 7 30 111 23 253 l-6 129
26 -29 c14 -17 25 -36 25 -43 0 -7 7 -15 15 -18 8 -4 15 -13 15 -21 0 -9 17
-50 39 -92 21 -42 53 -112 71 -156 18 -44 41 -92 52 -107 10 -14 18 -32 18
-40 0 -20 85 -105 127 -128 37 -20 57 -20 1145 -20 l1108 0 0 2235 0 2235
-2235 0 -2235 0 0 -2235z m683 2198 c-7 -2 -19 -2 -25 0 -7 3 -2 5 12 5 14 0
19 -2 13 -5z m304 -19 c-3 -3 -12 -4 -19 -1 -8 3 -5 6 6 6 11 1 17 -2 13 -5z
m1018 -194 c3 -6 -1 -7 -9 -4 -18 7 -21 14 -7 14 6 0 13 -4 16 -10z m65 -40
c0 -5 -2 -10 -4 -10 -3 0 -8 5 -11 10 -3 6 -1 10 4 10 6 0 11 -4 11 -10z
m-1412 -77 c-10 -2 -26 -2 -35 0 -10 3 -2 5 17 5 19 0 27 -2 18 -5z m-272 -28
c15 -14 33 -25 41 -25 8 0 12 -4 9 -9 -8 -12 -70 18 -85 40 -16 27 3 23 35 -6z
m161 9 c-3 -3 -12 -4 -19 -1 -8 3 -5 6 6 6 11 1 17 -2 13 -5z m-47 -8 c0 -2
-13 -6 -29 -8 -17 -2 -28 -1 -25 4 5 8 54 12 54 4z m1460 -15 c19 -8 6 -9 -50
-5 -118 9 -281 -18 -373 -62 -62 -29 -79 -34 -94 -24 -15 10 -15 11 -1 6 9 -3
45 9 80 26 123 59 360 91 438 59z m-1434 -51 c5 -5 27 -14 49 -20 l40 -10 -44
5 c-50 6 -111 34 -75 35 11 0 24 -4 30 -10z m1361 4 c-3 -3 -12 -4 -19 -1 -8
3 -5 6 6 6 11 1 17 -2 13 -5z m106 -11 c-7 -2 -19 -2 -25 0 -7 3 -2 5 12 5 14
0 19 -2 13 -5z m62 -13 c13 -6 15 -9 5 -9 -8 0 -22 4 -30 9 -18 12 -2 12 25 0z
m-1392 -17 c-7 -2 -21 -2 -30 0 -10 3 -4 5 12 5 17 0 24 -2 18 -5z m192 -25
c13 -5 -11 -6 -64 -3 -46 3 -91 10 -100 16 -20 12 134 1 164 -13z m375 13 c-8
-5 -40 -11 -70 -14 l-55 -6 50 14 c60 16 98 19 75 6z m388 -6 c-2 -1 -28 -5
-58 -8 -48 -5 -52 -4 -32 6 18 10 102 12 90 2z m95 8 c-13 -2 -35 -2 -50 0
-16 2 -5 4 22 4 28 0 40 -2 28 -4z m156 -14 c75 -12 96 -18 90 -24 -3 -2 -45
4 -94 14 -100 21 -97 27 4 10z m-814 -9 c-11 -5 -56 -9 -100 -9 -53 0 -73 3
-60 9 11 5 56 9 100 9 53 0 73 -3 60 -9z m360 -9 c-16 -10 -32 -17 -34 -15 -7
7 33 33 49 34 8 0 2 -8 -15 -19z m745 4 c7 -9 8 -15 2 -15 -5 0 -12 7 -16 15
-3 8 -4 15 -2 15 2 0 9 -7 16 -15z m-663 -1 c-3 -3 -12 -4 -19 -1 -8 3 -5 6 6
6 11 1 17 -2 13 -5z m-167 -52 c0 -11 -80 -36 -88 -28 -3 3 9 9 27 12 17 4 34
11 37 15 7 11 24 12 24 1z m248 -9 c-10 -2 -28 -2 -40 0 -13 2 -5 4 17 4 22 1
32 -1 23 -4z m532 -23 c0 -5 -2 -10 -4 -10 -3 0 -8 5 -11 10 -3 6 -1 10 4 10
6 0 11 -4 11 -10z m-670 -40 c-8 -5 -19 -10 -25 -10 -5 0 -3 5 5 10 8 5 20 10
25 10 6 0 3 -5 -5 -10z m737 4 c-3 -3 -12 -4 -19 -1 -8 3 -5 6 6 6 11 1 17 -2
13 -5z m-30 -50 c-3 -3 -12 -4 -19 -1 -8 3 -5 6 6 6 11 1 17 -2 13 -5z m-387
-19 c-46 -18 -72 -18 -40 -1 14 8 36 14 50 14 22 0 20 -1 -10 -13z m87 -1 c-3
-3 -12 -4 -19 -1 -8 3 -5 6 6 6 11 1 17 -2 13 -5z m-183 -50 c-22 -13 -43 -24
-49 -24 -5 1 7 11 27 24 21 12 35 26 31 30 -4 4 1 4 11 0 16 -6 13 -11 -20
-30z m-771 9 c-7 -2 -19 -2 -25 0 -7 3 -2 5 12 5 14 0 19 -2 13 -5z m-80 -10
c-7 -2 -19 -2 -25 0 -7 3 -2 5 12 5 14 0 19 -2 13 -5z m-56 -19 c-3 -3 -12 -4
-19 -1 -8 3 -5 6 6 6 11 1 17 -2 13 -5z m1381 -1 c-16 -2 -40 -2 -55 0 -16 2
-3 4 27 4 30 0 43 -2 28 -4z m-1473 -22 c-6 -5 -21 -11 -35 -15 -21 -5 -20 -3
5 9 35 17 42 18 30 6z m1330 0 c-35 -14 -90 -22 -80 -12 10 10 44 18 80 19
l20 1 -20 -8z m-435 -31 c0 -5 -5 -10 -11 -10 -5 0 -7 5 -4 10 3 6 8 10 11 10
2 0 4 -4 4 -10z m-792 -67 c-15 -2 -42 -2 -60 0 -18 2 -6 4 27 4 33 0 48 -2
33 -4z m77 -3 c8 -13 -5 -13 -25 0 -13 8 -13 10 2 10 9 0 20 -4 23 -10z m-265
-20 c-96 -20 -252 -33 -226 -18 9 5 40 11 69 13 28 3 79 9 112 14 106 15 133
10 45 -9z m515 -2 c22 -9 -64 -3 -150 12 -38 6 -28 7 40 3 50 -3 99 -10 110
-15z m385 8 c0 -3 -4 -8 -10 -11 -5 -3 -10 -1 -10 4 0 6 5 11 10 11 6 0 10 -2
10 -4z m565 -96 c-3 -5 -11 -10 -16 -10 -6 0 -7 5 -4 10 3 6 11 10 16 10 6 0
7 -4 4 -10z m-121 -15 c-10 -7 -22 -11 -27 -8 -12 7 0 19 23 20 21 2 21 1 4
-12z m-49 -35 c-3 -5 -11 -10 -16 -10 -6 0 -7 5 -4 10 3 6 11 10 16 10 6 0 7
-4 4 -10z m-145 -10 c-34 -11 -60 -11 -35 0 11 5 29 8 40 8 16 0 15 -2 -5 -8z
m-382 -140 c-23 -31 -28 -35 -28 -22 0 9 38 52 46 52 2 0 -5 -13 -18 -30z
m-507 -96 c-18 -8 -43 -13 -55 -11 -17 3 -14 5 14 14 53 17 82 14 41 -3z
m-101 -24 c-14 -4 -36 -8 -50 -8 l-25 0 25 8 c14 4 36 8 50 8 l25 0 -25 -8z
m-117 -27 c-7 -2 -21 -2 -30 0 -10 3 -4 5 12 5 17 0 24 -2 18 -5z m-68 -12
c-25 -10 -162 -25 -154 -17 7 7 104 23 144 24 25 1 27 -1 10 -7z m-280 -39
c-3 -3 -11 0 -18 7 -9 10 -8 11 6 5 10 -3 15 -9 12 -12z m108 11 c-7 -2 -21
-2 -30 0 -10 3 -4 5 12 5 17 0 24 -2 18 -5z m-250 -10 c-7 -2 -21 -2 -30 0
-10 3 -4 5 12 5 17 0 24 -2 18 -5z m62 -3 c-3 -5 -11 -10 -16 -10 -6 0 -7 5
-4 10 3 6 11 10 16 10 6 0 7 -4 4 -10z m883 -130 c-7 -11 -17 -20 -22 -20 -5
0 -1 9 9 20 10 11 20 20 22 20 2 0 -2 -9 -9 -20z m-138 -9 c0 -8 -81 -33 -88
-27 -2 2 16 10 40 19 24 8 44 15 46 16 1 0 2 -3 2 -8z m43 2 c-7 -2 -19 -2
-25 0 -7 3 -2 5 12 5 14 0 19 -2 13 -5z m-303 -97 c0 -3 -4 -8 -10 -11 -5 -3
-10 -1 -10 4 0 6 5 11 10 11 6 0 10 -2 10 -4z m280 -21 c-7 -8 -17 -15 -23
-15 -6 0 -2 7 9 15 25 19 30 19 14 0z m-190 -105 c0 -5 -5 -10 -11 -10 -5 0
-7 5 -4 10 3 6 8 10 11 10 2 0 4 -4 4 -10z m1024 -702 c7 -38 7 -38 -19 -26
-24 11 -34 28 -16 28 5 0 11 10 14 22 8 28 13 22 21 -24z m-861 -37 c-23 -15
-48 -151 -25 -138 4 3 8 -5 9 -16 3 -44 16 -113 25 -130 7 -13 13 -15 26 -8
14 7 17 19 14 47 -3 25 -1 35 7 30 6 -4 11 -13 11 -19 0 -7 9 -30 20 -52 11
-22 20 -47 20 -56 0 -9 -9 -19 -20 -22 -11 -3 -20 -11 -20 -17 0 -9 4 -9 16 1
15 12 16 11 10 -11 l-7 -25 14 23 c7 12 16 19 20 16 11 -11 8 -26 -3 -19 -5 3
-10 1 -10 -4 0 -6 7 -11 16 -11 10 0 14 -6 10 -15 -3 -9 0 -15 8 -15 8 0 16
-7 19 -15 4 -8 29 -26 57 -40 36 -18 50 -31 50 -46 0 -21 -1 -21 -27 -3 -91
58 -203 163 -203 188 0 4 -11 23 -24 44 -27 40 -53 133 -57 197 -2 38 20 130
38 158 5 8 9 4 11 -12 2 -13 0 -26 -5 -30z m1402 -362 c5 -61 4 -99 -3 -102
-5 -4 -12 11 -15 35 -3 24 -11 44 -16 46 -6 2 -11 11 -11 20 0 15 2 15 11 2 8
-12 9 -10 5 10 -3 14 -6 57 -7 95 -1 51 -3 62 -8 40 -6 -25 -8 -20 -12 30 -2
33 -2 89 0 125 l4 65 23 -135 c12 -74 25 -178 29 -231z m-671 126 c9 -44 21
-91 27 -104 5 -13 7 -26 5 -29 -3 -3 -44 13 -91 34 -81 37 -85 41 -85 71 0 17
5 35 11 39 8 5 10 -3 7 -24 -4 -27 0 -33 28 -47 42 -20 47 -19 32 4 -9 14 -8
38 1 102 8 46 15 100 16 119 5 59 7 57 20 -15 6 -38 20 -106 29 -150z m114
194 c29 -10 46 -38 33 -56 -7 -11 -76 -63 -83 -63 -16 0 8 49 30 63 15 9 22
17 15 17 -6 0 -15 -4 -18 -10 -3 -5 -11 -10 -18 -10 -8 0 -8 3 1 12 16 16 15
45 0 51 -25 10 9 7 40 -4z m-735 -101 l-11 -33 -1 45 c-1 33 2 41 11 32 8 -8
8 -20 1 -44z m-58 -37 c3 -5 1 -12 -5 -16 -5 -3 -10 1 -10 9 0 18 6 21 15 7z
m-18 -53 c-3 -8 -6 -5 -6 6 -1 11 2 17 5 13 3 -3 4 -12 1 -19z m517 -60 c6
-27 5 -28 -34 -28 -37 0 -40 2 -39 28 2 23 2 24 6 5 5 -24 11 -27 36 -17 9 3
12 14 9 32 -6 35 13 17 22 -20z m-82 -207 l15 -34 7 37 c4 20 2 44 -4 55 -14
28 -12 51 5 51 8 0 15 5 15 10 0 6 -5 9 -11 8 -6 -2 -14 3 -16 10 -6 14 16 16
51 2 16 -6 26 -17 26 -30 0 -11 2 -20 4 -20 2 0 12 -3 20 -6 12 -5 15 -2 10
11 -8 21 10 17 105 -26 35 -16 71 -29 80 -29 10 0 21 -4 27 -10 7 -7 33 -3 79
11 39 11 84 23 100 25 24 4 21 1 -15 -14 -24 -11 -45 -23 -47 -28 -3 -9 133
-45 167 -44 9 0 24 14 34 31 12 21 21 27 29 20 7 -5 25 -7 40 -4 24 5 28 9 23
29 -8 29 3 76 14 69 5 -3 10 3 12 12 3 14 8 11 21 -14 9 -18 17 -40 17 -50 1
-10 9 -33 19 -51 15 -29 19 -31 30 -18 9 11 10 20 2 34 -6 11 -14 37 -20 58
-5 22 -12 48 -17 58 -5 13 -4 17 3 13 6 -4 14 -19 18 -34 11 -48 55 -134 65
-128 14 9 50 -13 50 -30 0 -8 5 -15 10 -15 14 0 13 13 -2 28 -6 6 -9 14 -6 17
8 9 38 -6 32 -16 -3 -5 2 -9 10 -9 9 0 16 -4 16 -10 0 -5 7 -10 15 -10 10 0
15 -7 13 -17 -2 -12 3 -18 14 -17 9 1 14 -4 12 -10 -2 -6 -24 -10 -52 -10 -55
2 -92 -24 -93 -65 0 -24 -1 -24 -9 -6 -6 13 -9 15 -9 5 0 -8 5 -26 12 -40 10
-19 11 -31 3 -49 -8 -18 -8 -25 2 -29 25 -8 12 -29 -16 -24 -19 2 -36 -4 -56
-21 -28 -24 -28 -25 -10 -45 11 -11 30 -34 44 -52 43 -53 51 -60 78 -66 15 -3
41 -12 57 -20 28 -13 20 -14 -92 -9 -67 3 -134 3 -148 -1 -47 -12 -25 -24 43
-24 99 0 202 -12 202 -23 0 -5 -7 -7 -15 -3 -8 3 -15 0 -15 -7 -1 -27 -54 -52
-112 -52 -62 0 -68 -7 -45 -47 23 -42 38 -50 96 -55 l58 -6 -13 -26 c-8 -14
-14 -32 -14 -39 0 -22 -43 -72 -61 -72 -17 0 -160 71 -249 124 -64 38 -116 61
-212 92 -79 26 -117 48 -182 104 -56 47 -106 105 -112 128 -3 12 -9 22 -13 22
-16 1 -90 187 -150 380 -23 74 -46 145 -51 158 -6 13 -10 33 -10 45 1 12 14
-16 29 -63 16 -47 35 -100 43 -119z m479 169 c6 0 8 -4 5 -9 -3 -5 4 -12 17
-16 19 -6 17 -8 -18 -15 -57 -12 -148 -12 -140 0 3 6 1 10 -4 10 -6 0 -11 7
-11 15 0 11 7 14 23 10 12 -2 38 -1 57 4 19 5 41 7 48 5 8 -2 18 -4 23 -4z
m809 -10 c0 -5 -4 -10 -9 -10 -6 0 -13 5 -16 10 -3 6 1 10 9 10 9 0 16 -4 16
-10z m-70 -20 c0 -5 -7 -10 -16 -10 -8 0 -12 5 -9 10 3 6 10 10 16 10 5 0 9
-4 9 -10z m-230 -97 c-10 -16 -11 -15 -6 7 3 14 7 39 8 55 1 26 2 25 5 -7 2
-21 -1 -46 -7 -55z m60 -48 c-7 -9 -15 -13 -17 -11 -7 7 7 26 19 26 6 0 6 -6
-2 -15z m55 -105 c3 -5 1 -10 -4 -10 -6 0 -11 5 -11 10 0 6 2 10 4 10 3 0 8
-4 11 -10z"/>
<path d="M980 1619 c0 -5 5 -7 10 -4 6 3 10 8 10 11 0 2 -4 4 -10 4 -5 0 -10
-5 -10 -11z"/>
<path d="M2281 1814 c0 -11 3 -14 6 -6 3 7 2 16 -1 19 -3 4 -6 -2 -5 -13z"/>
<path d="M1605 1670 c-3 -5 -1 -10 4 -10 6 0 11 5 11 10 0 6 -2 10 -4 10 -3 0
-8 -4 -11 -10z"/>
<path d="M1690 912 c0 -4 12 -19 27 -33 20 -18 23 -19 13 -4 -24 32 -40 47
-40 37z"/>
<path d="M2188 863 c7 -3 16 -2 19 1 4 3 -2 6 -13 5 -11 0 -14 -3 -6 -6z"/>
<path d="M2218 843 c7 -3 16 -2 19 1 4 3 -2 6 -13 5 -11 0 -14 -3 -6 -6z"/>
<path d="M2295 660 c3 -5 11 -10 16 -10 6 0 7 5 4 10 -3 6 -11 10 -16 10 -6 0
-7 -4 -4 -10z"/>
<path d="M2280 606 c0 -9 30 -14 35 -6 4 6 -3 10 -14 10 -12 0 -21 -2 -21 -4z"/>
</g>
</svg>
